<svg width="350" height="320" viewBox="0 0 350 320" fill="none" xmlns="http://www.w3.org/2000/svg">
<path d="M205.414 229.593V115.113H161.134V103.593H263.014V115.113H218.734V229.593H205.414Z" fill="white"/>
<path d="M75.7752 175.661C66.2952 175.661 57.5352 174.101 49.4952 170.981C41.4552 167.741 34.4952 163.241 28.6152 157.481C22.7352 151.721 18.1152 144.941 14.7552 137.141C11.5152 129.341 9.89516 120.821 9.89516 111.581C9.89516 102.341 11.5152 93.8214 14.7552 86.0214C18.1152 78.2214 22.7352 71.4414 28.6152 65.6814C34.6152 59.9214 41.6352 55.4814 49.6752 52.3614C57.7152 49.1214 66.4752 47.5014 75.9552 47.5014C85.0752 47.5014 93.6552 49.0614 101.695 52.1814C109.735 55.1814 116.515 59.7414 122.035 65.8614L113.575 74.3214C108.415 69.0414 102.715 65.2614 96.4752 62.9814C90.2352 60.5814 83.5152 59.3814 76.3152 59.3814C68.7552 59.3814 61.7352 60.7014 55.2552 63.3414C48.7752 65.8614 43.1352 69.5214 38.3352 74.3214C33.5352 79.0014 29.7552 84.5214 26.9952 90.8814C24.3552 97.1214 23.0352 104.021 23.0352 111.581C23.0352 119.141 24.3552 126.101 26.9952 132.461C29.7552 138.701 33.5352 144.221 38.3352 149.021C43.1352 153.701 48.7752 157.361 55.2552 160.001C61.7352 162.521 68.7552 163.781 76.3152 163.781C83.5152 163.781 90.2352 162.581 96.4752 160.181C102.715 157.781 108.415 153.941 113.575 148.661L122.035 157.121C116.515 163.241 109.735 167.861 101.695 170.981C93.6552 174.101 85.0152 175.661 75.7752 175.661Z" fill="white"/>
<path d="M205.629 148.726H218.769V274.726H205.629V148.726ZM126.789 274.726H113.469V148.726H126.789V274.726ZM206.889 216.586H125.349V204.886H206.889V216.586Z" fill="white"/>
<path d="M313.361 83.8499L315.978 83.7838C317.472 83.7838 318.471 85.301 318.471 85.301L321.693 89.5448L325.434 89.5855C327.409 89.6033 326.811 91.9997 325.904 92.1242L323.805 92.2818L327.081 97.0466L330.036 96.8204C333.238 96.5358 332.753 99.1914 331.17 99.4582L329.172 99.6921L334.425 106.52C344.617 106.716 348.811 106.763 348.946 109.361C349.081 111.977 344.178 112.015 334.572 112.157L329.208 119.239L331.528 119.45C332.898 119.575 333.225 121.9 330.557 121.829L327.175 121.73L323.836 126.538L325.759 126.789C327.485 126.985 327.64 129.163 324.954 129.252L321.485 129.265C321.36 129.247 318.476 133.402 318.476 133.402C317.142 135.518 315.538 135.175 315.538 135.175L313.317 135.023L321.543 117.781C322.291 116.287 322.561 114.123 320.834 112.685C319.909 111.938 316.372 111.252 315.749 111.306L306.159 111.117C305.945 111.082 300.799 117.981 300.799 117.981C300.621 118.159 297.038 118.642 297.038 118.642L299.455 110.03L297.214 109.212L299.501 108.713L297.071 99.9868L300.693 100.548C301.457 101.776 306.093 107.585 306.253 107.639C306.253 107.639 314.723 107.674 315.221 107.661C318.102 107.59 319.127 107.511 320.07 106.996C321.013 106.479 321.719 105.046 320.867 101.486C319.694 96.5769 313.361 83.8499 313.361 83.8499Z" fill="white"/>
<rect x="284.758" y="103.602" width="1.98437" height="11.5588" fill="white"/>
<rect x="290.742" y="103.602" width="1.98437" height="11.5588" fill="white"/>
<rect x="278.773" y="103.602" width="1.98437" height="11.5588" fill="white"/>
<rect x="272.789" y="103.602" width="1.98437" height="11.5588" fill="white"/>
<rect x="266.805" y="103.602" width="1.98437" height="11.5588" fill="white"/>
</svg>
